Coordinates
version=1
nRows=5
nColumns=107
inDegrees=yes

Units are S.I. units (second, meters, Newtons, ...)
If the header above contains a line with 'inDegrees', this indicates whether rotational values are in degrees (yes) or radians (no).

endheader
time	sternoclavicular_r2	sternoclavicular_r3	unrotscap_r3	unrotscap_r2	acromioclavicular_r2	acromioclavicular_r3	acromioclavicular_r1	unrothum_r1	unrothum_r3	unrothum_r2	elv_angle	shoulder_elv	shoulder1_r2	shoulder_rot	elbow_flexion	pro_sup	deviation	flexion	proximal_distal_r1	proximal_distal_r3	cmc_flexion	cmc_abduction	mp_flexion	ip_flexion	mcp2_flexion	mcp2_abduction	pm2_flexion	md2_flexion	mcp3_flexion	mcp3_abduction	pm3_flexion	md3_flexion	mcp4_flexion	mcp4_abduction	pm4_flexion	md4_flexion	mcp5_flexion	mcp5_abduction	pm5_flexion	md5_flexion	bicpt_tx	bicpt_ty	bicpt_tz	bicpt2_tx	bicpt2_ty	bicpt2_tz	ptpt_tx	ptpt_ty	ptpt_tz	FCUpt_tx	FCUpt_ty	FCUpt_tz	EDCpt_tx	EDCpt_ty	EDCpt_tz	APLpt_tx	APLpt_ty	APLpt_tz	FPLpt_tx	FPLpt_ty	FPLpt_tz	FPLpt2_tx	FPLpt2_ty	FPLpt2_tz	PEC1pt2_tx	PEC1pt2_ty	PEC1pt2_tz	PEC1pt3_tx	PEC1pt3_ty	PEC1pt3_tz	PEC2pt2_tx	PEC2pt2_ty	PEC2pt2_tz	PEC2pt3_tx	PEC2pt3_ty	PEC2pt3_tz	PEC3pt2_tx	PEC3pt2_ty	PEC3pt2_tz	PEC3pt3_tx	PEC3pt3_ty	PEC3pt3_tz	DELT2pt2a_tx	DELT2pt2a_ty	DELT2pt2a_tz	DELT2pt2_tx	DELT2pt2_ty	DELT2pt2_tz	LAT1pt2_tx	LAT1pt2_ty	LAT1pt2_tz	LAT1pt3_tx	LAT1pt3_ty	LAT1pt3_tz	LAT2pt2_tx	LAT2pt2_ty	LAT2pt2_tz	LAT2pt3_tx	LAT2pt3_ty	LAT2pt3_tz	LAT3pt2_tx	LAT3pt2_ty	LAT3pt2_tz	LAT3pt3_tx	LAT3pt3_ty	LAT3pt3_tz
      0.80000000	     -0.31586139	      0.13378398	     -0.13378398	      0.31586139	     -0.06395551	      0.51686591	      0.23232767	     -0.23232767	     -0.51686591	      0.06395551	    101.45360390	     74.78299258	     -1.77069943	    -31.69619061	     26.88090952	     14.17629703	     -0.04651730	     -1.07250208	     -0.06490149	     -0.53625104	    -11.90951027	      1.01268128	    -30.93937463	    -15.68640262	     48.58048268	     13.04485526	     12.99737756	    -34.32797781	     86.15032523	      4.39940005	     86.40726613	     58.52083235	     75.20046102	    -11.11926554	     85.68967134	     34.74819458	     31.80561560	     -5.85335794	     -6.14656308	      4.96102413	      0.00078914	     -0.03068096	     -0.00479626	      0.01576335	     -0.01750233	     -0.00975925	      0.00650253	     -0.06557731	     -0.00119198	      0.00528325	     -0.18393758	      0.00004800	     -0.00170115	      0.00043267	      0.00015110	      0.00013404	      0.00005361	      0.00026807	      0.00017157	      0.00051470	      0.00028952	     -0.00192978	      0.00037654	      0.00045184	      0.00245122	      0.00860005	      0.00598264	     -0.00801841	      0.01936050	     -0.01836339	      0.00245122	      0.00860005	      0.00598264	      0.00054010	      0.01794793	     -0.00943097	      0.00389520	      0.00478238	      0.01583727	      0.00000000	      0.00747733	      0.00000000	     -0.00702130	     -0.03244754	     -0.00616366	      0.01961069	     -0.00081539	     -0.00834192	     -0.00087247	      0.01462424	     -0.00598264	      0.00240968	      0.02110544	     -0.01744938	     -0.00585801	      0.01267157	     -0.00535945	     -0.01221457	      0.02675572	     -0.02995477	     -0.02293347	      0.01416723	     -0.00718748	     -0.01520589	      0.03091033	     -0.03743307
      0.83333333	     -0.31581943	      0.13376620	     -0.13376620	      0.31581943	     -0.06394701	      0.51679724	      0.23229680	     -0.23229680	     -0.51679724	      0.06394701	    101.48377190	     74.77305615	     -1.77122596	    -31.74701027	     26.70046653	     14.68146022	     -0.03196188	     -1.07671851	     -0.04421270	     -0.53835926	    -11.57396261	      1.29152819	    -30.68335325	    -15.60524530	     48.89215761	     12.69878132	     13.38943675	    -34.19129436	     85.93505634	      4.58835316	     86.32682011	     58.56187634	     75.13934955	    -11.25381594	     85.71572303	     34.70951104	     31.44773522	     -6.86253676	     -6.35167571	      4.95163160	      0.00078317	     -0.03066028	     -0.00479293	      0.01579385	     -0.01745331	     -0.00972343	      0.00646521	     -0.06560145	     -0.00123267	      0.00533012	     -0.18393074	      0.00003469	     -0.00176177	      0.00044924	      0.00015447	      0.00013076	      0.00005230	      0.00026152	      0.00016737	      0.00050211	      0.00028244	     -0.00181582	      0.00036377	      0.00043652	      0.00245090	      0.00859891	      0.00598185	     -0.00801734	      0.01935793	     -0.01836095	      0.00245090	      0.00859891	      0.00598185	      0.00054003	      0.01794555	     -0.00942972	      0.00389482	      0.00478174	      0.01583631	      0.00000000	      0.00747533	      0.00000000	     -0.00702037	     -0.03244323	     -0.00616200	      0.01963205	     -0.00081715	     -0.00836771	     -0.00087235	      0.01462230	     -0.00598185	      0.00240936	      0.02110264	     -0.01744706	     -0.00585723	      0.01266989	     -0.00535874	     -0.01221294	      0.02675216	     -0.02995079	     -0.02293042	      0.01416535	     -0.00718653	     -0.01520387	      0.03090622	     -0.03742810
      0.86666667	     -0.31627721	      0.13396010	     -0.13396010	      0.31627721	     -0.06403970	      0.51754635	      0.23263352	     -0.23263352	     -0.51754635	      0.06403970	    101.50813188	     74.88144169	     -1.77165112	    -31.35649463	     26.45846766	     16.82860131	      0.02293356	     -1.06231410	      0.03069434	     -0.53115705	    -11.23710646	      3.17509079	    -29.77570529	    -15.16802087	     49.28283546	     12.11314153	     15.03971632	    -33.46122272	     85.46937036	      4.11065649	     85.71880549	     58.10742259	     75.14929453	    -11.64410810	     84.85229589	     33.97496141	     31.96931205	     -7.82477270	     -6.03982608	      5.01829850	      0.00077516	     -0.03063254	     -0.00478846	      0.01591696	     -0.01738757	     -0.00956721	      0.00630656	     -0.06570403	     -0.00140563	      0.00553023	     -0.18390086	     -0.00001976	     -0.00201943	      0.00052051	      0.00016727	      0.00014183	      0.00005673	      0.00028365	      0.00018154	      0.00054461	      0.00030634	     -0.00170585	      0.00035108	      0.00042130	      0.00245445	      0.00861137	      0.00599052	     -0.00802896	      0.01938599	     -0.01838757	      0.00245445	      0.00861137	      0.00599052	      0.00054081	      0.01797156	     -0.00944339	      0.00389897	      0.00478868	      0.01584669	      0.00000000	      0.00749716	      0.00000000	     -0.00703054	     -0.03249025	     -0.00618013	      0.01946704	     -0.00080365	     -0.00817036	     -0.00087362	      0.01464349	     -0.00599052	      0.00241285	      0.02113322	     -0.01747235	     -0.00586572	      0.01268826	     -0.00536651	     -0.01223065	      0.02679094	     -0.02999420	     -0.02296366	      0.01418589	     -0.00719694	     -0.01522591	      0.03095102	     -0.03748235
      0.90000000	     -0.31767124	      0.13455054	     -0.13455054	      0.31767124	     -0.06432196	      0.51982748	      0.23365888	     -0.23365888	     -0.51982748	      0.06432196	    100.97191101	     75.21148888	     -1.76229230	    -29.72021099	     26.76029384	     21.55514350	      0.14126015	     -0.91204201	      0.17537714	     -0.45602100	    -10.61395600	      3.32844568	    -27.90129340	    -14.00949584	     46.72796014	     11.80972468	     18.57566377	    -30.21986951	     83.77515748	      3.27085637	     84.74471478	     52.01527509	     74.36613225	    -11.74696462	     81.73856385	     31.08662250	     31.33257677	     -7.56131711	     -6.08710087	      4.98613200	      0.00078515	     -0.03066714	     -0.00479404	      0.01615079	     -0.01746957	     -0.00920054	      0.00595732	     -0.06592985	     -0.00178638	      0.00597573	     -0.18383046	     -0.00012738	     -0.00258661	      0.00068243	      0.00018664	      0.00023654	      0.00009461	      0.00047307	      0.00030277	      0.00090830	      0.00051092	     -0.00151365	      0.00032793	      0.00039352	      0.00246527	      0.00864933	      0.00601692	     -0.00806435	      0.01947144	     -0.01846861	      0.00246527	      0.00864933	      0.00601692	      0.00054319	      0.01805077	     -0.00948501	      0.00391160	      0.00480978	      0.01587813	      0.00000000	      0.00756384	      0.00000000	     -0.00706153	     -0.03263346	     -0.00623550	      0.01875346	     -0.00074756	     -0.00736306	     -0.00087747	      0.01470804	     -0.00601692	      0.00242348	      0.02122637	     -0.01754936	     -0.00589157	      0.01274418	     -0.00539016	     -0.01228455	      0.02690902	     -0.03012641	     -0.02306488	      0.01424841	     -0.00722867	     -0.01529302	      0.03108744	     -0.03764756
      0.93333333	     -0.31886518	      0.13505624	     -0.13505624	      0.31886518	     -0.06456371	      0.52178122	      0.23453707	     -0.23453707	     -0.52178122	      0.06456371	    100.62827331	     75.49416611	     -1.75629469	    -28.70636909	     26.80264095	     28.15049932	      0.27217000	     -0.75674453	      0.30874099	     -0.37837226	     -9.88362650	      4.58453834	    -25.38193019	    -12.99297112	     45.00210966	     10.37221940	     21.23348537	    -26.85204887	     81.54388966	      1.42303995	     84.14899051	     48.43219370	     73.07202574	    -11.98055753	     80.30605726	     29.80447260	     30.74599931	     -7.88562154	     -6.62132996	      5.00268448	      0.00078655	     -0.03067199	     -0.00479482	      0.01639166	     -0.01748107	     -0.00863655	      0.00547000	     -0.06624497	     -0.00231767	      0.00660891	     -0.18372163	     -0.00024943	     -0.00337805	      0.00091989	      0.00019344	      0.00029468	      0.00011787	      0.00058936	      0.00037719	      0.00113156	      0.00063651	     -0.00130674	      0.00030136	      0.00036163	      0.00247453	      0.00868184	      0.00603954	     -0.00809466	      0.01954462	     -0.01853803	      0.00247453	      0.00868184	      0.00603954	      0.00054524	      0.01811862	     -0.00952066	      0.00392239	      0.00482786	      0.01590484	      0.00000000	      0.00762119	      0.00000000	     -0.00708807	     -0.03275611	     -0.00628312	      0.01829338	     -0.00071318	     -0.00687921	     -0.00088077	      0.01476332	     -0.00603954	      0.00243259	      0.02130615	     -0.01761532	     -0.00591371	      0.01279208	     -0.00541042	     -0.01233072	      0.02701016	     -0.03023963	     -0.02315156	      0.01430196	     -0.00725583	     -0.01535049	      0.03120428	     -0.03778906
